<svg width="80" height="30" viewBox="0 0 80 30" fill="none" xmlns="http://www.w3.org/2000/svg"><g clip-path="url(#clip0_197_4092)"><path d="M17.6788 28.9492C16.8167 28.6751 15.2742 27.8832 15.2742 27.731C15.2893 27.3959 15.5464 27.2741 15.9699 27.3959C18.329 28.0812 21.3536 27.3959 22.9718 25.8426C24.3177 24.533 24.6806 22.8579 24.0152 21.0609C23.2742 19.0508 19.1457 15.9442 14.8054 14.1167L14.261 13.8883L12.915 14.9543C10.9219 16.5475 8.83076 18.0124 6.65418 19.3401C4.46137 20.6802 0.605036 22.6903 0.226964 22.6903C-0.332582 22.6903 0.105981 22.1878 1.33093 21.4568C4.96042 19.264 8.6504 16.4924 11.7506 13.6447L12.5521 12.9137L11.5086 11.8629C9.48216 9.85278 8.58991 7.17258 9.34605 5.43654C10.2081 3.47207 12.5823 1.7208 15.8791 0.593901C17.0587 0.197962 17.6183 0.0913631 18.9944 0.0304494C20.9755 -0.0456927 21.7468 0.197962 22.4727 1.15735C22.8659 1.65989 22.9113 1.85786 22.9113 2.80202C22.9113 3.68527 22.8356 4.05075 22.4727 4.76649C21.9132 5.93908 20.8092 7.38578 19.0701 9.28933C18.2988 10.1269 17.6788 10.8426 17.709 10.8731L18.7374 11.3452C20.1438 11.9543 21.2931 12.67 22.9869 13.9492C26.0417 16.2639 27.5842 18.6548 27.7808 21.3959C27.9352 23.0948 27.4844 24.7935 26.5092 26.1884C25.534 27.5833 24.0979 28.5835 22.4576 29.0101C21.2175 29.3299 18.7676 29.2995 17.6788 28.9492ZM16.5597 8.64974C18.2081 6.73096 19.3271 5.19289 19.8262 4.15735C20.5521 2.71065 20.3404 2.52791 18.4803 2.96954C16.4521 3.45101 14.5915 4.47727 13.0965 5.93908L12.3857 6.7005L12.7033 7.30964C13.3083 8.44672 14.2635 9.35523 15.4254 9.89847C15.4708 9.89847 15.985 9.33502 16.5597 8.64974ZM50.4349 27.8223L49.9056 27.2893V28.1726H46.7298V13.0964H49.9056V15.8376L50.5105 15.5178C50.9944 15.2589 51.312 15.2132 51.9623 15.2589C52.9907 15.3502 53.4897 15.7005 53.9888 16.6903C54.3668 17.4365 54.3668 17.4518 54.3668 21.7766C54.3668 26.1015 54.3668 26.1167 53.9888 26.8629C53.4746 27.8832 52.9907 28.2183 51.8716 28.2944C51.0096 28.3553 50.9491 28.3401 50.4349 27.8223ZM50.9793 25.6447C51.1305 25.4467 51.191 24.6244 51.2364 22.3249C51.2969 18.8071 51.191 17.9086 50.7222 17.8477C50.0871 17.7563 49.9812 18.1523 49.9358 21.0761C49.8753 24.1523 49.9661 25.3249 50.2988 25.6599C50.6012 25.9492 50.7222 25.9492 50.9793 25.6447ZM56.6201 28.0812C56.3782 27.9594 56.0303 27.6396 55.864 27.3655C55.5918 26.9086 55.5767 26.5127 55.5313 21.137L55.4859 15.3807H58.6768V20.4822C58.6768 25.2944 58.692 25.5837 58.9642 25.7208C59.1608 25.8274 59.3271 25.8122 59.5237 25.6599C59.7959 25.4619 59.8111 25.1574 59.8564 20.4213L59.9018 15.3807H63.0625V28.1726H59.8867V27.2893L59.3725 27.8071C58.9037 28.2792 58.7827 28.3249 57.9812 28.3249C57.4821 28.3249 56.8772 28.2183 56.6201 28.0812ZM73.6485 28.1269C72.726 27.6548 72.1967 26.0254 72.3328 24.0457C72.484 21.8376 73.1041 21.0761 75.433 20.2538L76.5974 19.8274L76.6428 19.1421C76.7033 18.2589 76.4613 17.7868 76.0228 17.8477C75.7354 17.8934 75.6901 18 75.6447 18.6244L75.5993 19.3401H72.3933L72.4991 18.3959C72.726 16.1421 73.7392 15.3046 76.1438 15.3046C77.2326 15.3198 77.6258 15.3807 78.1097 15.6396C78.9112 16.066 79.5162 16.736 79.6976 17.3756C79.7884 17.665 79.8489 20.132 79.8489 23.0254V28.1726H76.6731V27.7614C76.6579 27.3959 76.6428 27.3807 76.5067 27.6091C76.1286 28.2639 74.4954 28.5533 73.6485 28.1269ZM76.4311 25.599C76.6428 25.3705 76.6731 25.0355 76.6428 23.5127L76.5974 21.7157L76.0681 22.1878L75.5388 22.6599V24.0304C75.5388 24.9594 75.5993 25.4619 75.7506 25.6294C76.0077 25.9645 76.1135 25.9492 76.4311 25.599ZM29.1873 21.7766V15.3807H32.2118V28.1726H29.1873V21.7766ZM33.5729 21.7766V15.3807H36.5975V16.3553L36.8394 16.0051C37.5502 15 39.7279 15 40.4235 15.9898L40.6655 16.3401L41.1343 15.868C41.6636 15.335 42.3593 15.1523 43.3574 15.2893C44.2043 15.3959 44.7941 15.8223 45.157 16.5533C45.4141 17.0863 45.4443 17.6193 45.4897 22.6599L45.5351 28.1726H42.3442V23.2386C42.3442 18.5787 42.329 18.2893 42.0568 17.9543L41.7544 17.5888L41.4065 17.9391C41.0587 18.2741 41.0587 18.2893 41.0133 23.2233L40.968 28.1726H37.9585L37.9434 23.4975C37.9283 20.9086 37.8829 18.6091 37.8224 18.3502C37.7468 18 37.6409 17.8934 37.3536 17.8934C36.658 17.8934 36.5975 18.2589 36.5975 23.4213V28.1726H33.5729V21.7766Z" fill="#6C2369"></path><path d="M64.2723 20.6345V13.0964H67.4481L67.4632 16.0355L67.4784 18.9594L68.0833 17.1777L68.6882 15.3807H70.3366C71.244 15.3807 71.985 15.3959 71.985 15.4264L71.0322 18.198L70.0795 20.9391L71.2591 24.5178L72.4387 28.1421H70.7449L69.0511 28.0964L68.2647 25.5837L67.4632 23.0711L67.4481 25.6294V28.1726H64.2723V20.6345ZM29.1873 13.934V13.0964H32.2118V14.7716H29.1873V13.934Z" fill="#6C2369"></path></g><defs><clipPath id="clip0_197_4092"><rect width="80" height="30" fill="white"></rect></clipPath></defs></svg>